<svg width="513" height="43" viewBox="0 0 513 43" fill="none" xmlns="http://www.w3.org/2000/svg">
<g clip-path="url(#clip0_6067_223)">
<path d="M116.405 4.24658L109.898 32.1015L102.833 4.24658H96.7227L89.7625 32.0527L83.1994 4.24658H76.894L86.0281 39.5704H92.7863L99.8022 12.2658L106.769 39.5704H113.528L122.662 4.24658H116.405Z" fill="white"/>
<path d="M144.095 33.8158V22.9121C144.095 16.7531 140.66 13.4785 133.797 13.4785C127.743 13.4785 123.249 16.4535 122.545 22.1109H128.398C128.753 19.3379 130.718 17.9236 133.749 17.9236C136.779 17.9236 138.291 19.5888 138.291 21.658C138.291 22.8215 137.838 23.7761 135.971 24.0826L131.073 24.7863C126.781 25.49 121.64 26.9043 121.64 32.8613C121.64 37.2994 124.872 40.2326 129.868 40.2326C133.198 40.2326 136.529 39.0203 138.751 35.7945V36.3519C138.751 38.3236 140.368 39.5847 142.938 39.5847H146.673V34.9933H145.307C144.604 34.9933 144.095 34.5404 144.095 33.8297V33.8158ZM138.291 28.2699C138.291 32.4572 135.818 35.7875 131.784 35.7875C129.262 35.7875 127.597 34.5265 127.597 32.2552C127.597 29.9838 129.011 28.8761 132.188 28.3187L135.971 27.6638C136.828 27.4617 137.539 27.3084 138.291 26.9043V28.2699Z" fill="white"/>
<path d="M154.936 4.24658H149.084V39.5704H154.936V4.24658Z" fill="white"/>
<path d="M164.911 4.24658H159.059V39.5704H164.911V4.24658Z" fill="white"/>
<path d="M180.071 13.4777C172.498 13.4777 167.705 19.2326 167.705 26.8547C167.705 34.4769 172.498 40.2248 180.071 40.2248C186.732 40.2248 190.669 36.4416 191.477 31.5924H185.722C184.914 34.2191 182.998 35.6264 180.12 35.6264C175.884 35.6264 173.912 32.4982 173.557 28.3109H191.776C192.18 17.3096 186.732 13.4707 180.071 13.4707V13.4777ZM173.662 24.3814C174.219 20.8002 176.184 18.0203 180.071 18.0203C183.604 18.0203 185.722 19.9363 186.028 24.3814H173.662Z" fill="white"/>
<path d="M202.097 32.0037V18.6337H207.545V14.1398H202.097V5.70947H196.244V12.8787C196.244 13.6869 195.791 14.1398 195.032 14.1398H192.259V18.6337H196.244V33.2718C196.244 37.6611 198.411 39.5771 202.654 39.5771H208.158V34.9857H204.73C202.759 34.9857 202.104 34.1287 202.104 32.0107L202.097 32.0037Z" fill="white"/>
<path d="M226.773 34.9788C220.669 34.9788 216.782 29.5793 216.782 21.9084C216.782 14.2375 220.565 8.83786 226.773 8.83786C231.566 8.83786 234.541 12.0149 235.405 16.662H241.766C240.958 9.14442 235.712 3.59155 226.78 3.59155C217.346 3.59155 210.379 10.7608 210.379 21.9084C210.379 33.0559 217.242 40.2252 226.78 40.2252C234.75 40.2252 240.707 35.8846 242.073 27.0014H235.712C234.952 31.7948 231.573 34.9719 226.78 34.9719L226.773 34.9788Z" fill="white"/>
<path d="M256.351 13.4785C248.43 13.4785 243.838 19.2334 243.838 26.8556C243.838 34.4777 248.43 40.2256 256.351 40.2256C264.273 40.2256 268.816 34.5265 268.816 26.8556C268.816 19.1847 264.273 13.4785 256.351 13.4785ZM256.351 35.481C251.655 35.481 249.844 31.3912 249.844 26.7998C249.844 22.2084 251.662 18.2232 256.351 18.2232C261.04 18.2232 262.859 22.2572 262.859 26.7998C262.859 31.3424 261.04 35.481 256.351 35.481Z" fill="white"/>
<path d="M285.821 13.4785C282.393 13.4785 279.112 15.0949 277.391 17.9724V14.1404H271.539V39.5777H277.391V25.2461C277.391 21.3097 280.115 18.3834 283.696 18.3834C286.929 18.3834 289.047 20.5015 289.047 24.3404V39.5847H294.9V23.6367C294.9 17.1781 291.521 13.4925 285.814 13.4925L285.821 13.4785Z" fill="white"/>
<path d="M313.099 13.4785C309.671 13.4785 306.39 15.0949 304.669 17.9724V14.1404H298.816V39.5777H304.669V25.2461C304.669 21.3097 307.393 18.3834 310.974 18.3834C314.207 18.3834 316.325 20.5015 316.325 24.3404V39.5847H322.177V23.6367C322.177 17.1781 318.798 13.4925 313.092 13.4925L313.099 13.4785Z" fill="white"/>
<path d="M337.093 13.4777C329.519 13.4777 324.726 19.2326 324.726 26.8547C324.726 34.4769 329.519 40.2248 337.093 40.2248C343.753 40.2248 347.69 36.4416 348.498 31.5924H342.743C341.935 34.2191 340.019 35.6264 337.141 35.6264C332.905 35.6264 330.934 32.4982 330.578 28.3109H348.798C349.202 17.3096 343.753 13.4707 337.093 13.4707V13.4777ZM330.683 24.3814C331.24 20.8002 333.205 18.0203 337.093 18.0203C340.625 18.0203 342.743 19.9363 343.05 24.3814H330.683Z" fill="white"/>
<path d="M362.773 18.2232C365.602 18.2232 367.671 20.0416 368.277 23.2187H374.179C373.419 17.0597 369.134 13.4785 362.822 13.4785C355.151 13.4785 350.309 19.2334 350.309 26.8556C350.309 34.4777 355.151 40.2256 362.822 40.2256C369.434 40.2256 373.37 36.4912 374.179 31.0429H368.326C367.518 34.0179 365.651 35.481 362.773 35.481C358.384 35.481 356.315 31.4957 356.315 26.7998C356.315 22.1039 358.384 18.2232 362.773 18.2232Z" fill="white"/>
<path d="M387.341 34.9787C385.369 34.9787 384.714 34.1218 384.714 32.0037V18.6337H390.162V14.1398H384.714V5.70947H378.861V12.8787C378.861 13.6869 378.409 14.1398 377.649 14.1398H374.876V18.6337H378.861V33.2718C378.861 37.6611 381.028 39.5771 385.271 39.5771H390.768V34.9857H387.341V34.9787Z" fill="white"/>
<path d="M50.4609 16.1674L56.4597 10.1686C42.9015 -3.38955 26.0548 -3.38955 12.4966 10.1686L18.4954 16.1674C28.8068 5.85594 40.1564 5.85594 50.4679 16.1674H50.4609Z" fill="white"/>
<path d="M48.4623 30.1435L34.4721 16.1533L20.482 30.1435L6.4918 16.1533L0.5 22.1451L20.482 42.1341L34.4721 28.1439L48.4623 42.1341L68.4443 22.1451L62.4525 16.1533L48.4623 30.1435Z" fill="white"/>
</g>
<path d="M408.784 39.5772V4.26733H420.991C431.079 4.26733 437.536 11.7328 437.536 21.9223C437.536 32.1621 431.079 39.5772 420.991 39.5772H408.784ZM413.324 35.794H420.739C428.154 35.794 432.693 30.2453 432.693 21.9223C432.693 13.5488 428.154 8.10098 420.739 8.10098H413.324V35.794Z" fill="#0988F0"/>
<path d="M451.989 40.2329C444.271 40.2329 439.731 34.4825 439.731 26.8656C439.731 19.2992 444.271 13.4983 451.989 13.4983C459.707 13.4983 464.247 19.2992 464.247 26.8656C464.247 34.4825 459.707 40.2329 451.989 40.2329ZM444.322 26.8152C444.322 31.809 446.39 36.5506 451.989 36.5506C457.538 36.5506 459.656 31.809 459.656 26.8152C459.656 21.8718 457.538 17.1806 451.989 17.1806C446.39 17.1806 444.322 21.8718 444.322 26.8152Z" fill="#0988F0"/>
<path d="M478.356 40.2329C470.941 40.2329 466.149 34.4825 466.149 26.8656C466.149 19.2992 470.941 13.4983 478.406 13.4983C484.258 13.4983 488.495 17.0293 489.302 22.8302H484.813C484.106 19.2992 481.635 17.1806 478.356 17.1806C473.059 17.1806 470.739 21.7709 470.739 26.8152C470.739 31.9099 473.059 36.5506 478.356 36.5506C481.685 36.5506 483.905 34.8356 484.813 31.5064H489.251C488.293 36.7019 484.409 40.2329 478.356 40.2329Z" fill="#0988F0"/>
<path d="M502.384 40.2329C495.725 40.2329 491.589 37.055 491.135 31.6072H495.675C496.28 34.9869 498.55 36.6515 502.485 36.6515C505.915 36.6515 508.084 35.0878 508.084 32.6161C508.084 30.7497 506.672 29.4382 504.049 28.9338L499.105 27.9754C495.423 27.2692 491.892 25.5541 491.892 20.863C491.892 16.6762 495.826 13.4983 501.779 13.4983C507.529 13.4983 511.716 15.9196 512.22 21.4178H507.731C507.226 18.593 505.158 17.0798 501.728 17.0798C498.5 17.0798 496.331 18.593 496.331 20.7621C496.331 22.8302 498.096 23.7382 500.164 24.1417L505.41 25.1506C509.042 25.8568 512.674 27.824 512.674 32.3639C512.674 37.1055 508.437 40.2329 502.384 40.2329Z" fill="#0988F0"/>
<defs>
<clipPath id="clip0_6067_223">
<rect width="391.557" height="42.5" fill="white" transform="translate(0.5)"/>
</clipPath>
</defs>
</svg>
