<svg width="554" height="146" viewBox="0 0 554 146" fill="none" xmlns="http://www.w3.org/2000/svg">
<path d="M323.884 101.735V26.5883H349.863C371.334 26.5883 385.075 42.4765 385.075 64.1618C385.075 85.9545 371.334 101.735 349.863 101.735H323.884ZM333.546 93.6839H349.327C365.107 93.6839 374.769 81.8751 374.769 64.1618C374.769 46.3412 365.107 34.7471 349.327 34.7471H333.546V93.6839ZM416.908 103.131C400.483 103.131 390.821 90.8927 390.821 74.6824C390.821 58.5795 400.483 46.2339 416.908 46.2339C433.333 46.2339 442.994 58.5795 442.994 74.6824C442.994 90.8927 433.333 103.131 416.908 103.131ZM400.59 74.5751C400.59 85.203 404.992 95.2942 416.908 95.2942C428.717 95.2942 433.225 85.203 433.225 74.5751C433.225 64.0545 428.717 54.0706 416.908 54.0706C404.992 54.0706 400.59 64.0545 400.59 74.5751ZM474.096 103.131C458.315 103.131 448.116 90.8927 448.116 74.6824C448.116 58.5795 458.315 46.2339 474.203 46.2339C486.656 46.2339 495.674 53.7486 497.391 66.0942H487.837C486.334 58.5795 481.074 54.0706 474.096 54.0706C462.824 54.0706 457.886 63.8398 457.886 74.5751C457.886 85.4177 462.824 95.2942 474.096 95.2942C481.181 95.2942 485.905 91.6442 487.837 84.5589H497.284C495.244 95.6162 486.978 103.131 474.096 103.131ZM526.306 103.131C512.136 103.131 503.333 96.3677 502.367 84.7736H512.028C513.317 91.9662 518.147 95.5089 526.521 95.5089C533.821 95.5089 538.437 92.1809 538.437 86.9206C538.437 82.9486 535.431 80.1574 529.849 79.0839L519.328 77.0442C511.492 75.5412 503.977 71.8912 503.977 61.9074C503.977 52.9971 512.35 46.2339 525.018 46.2339C537.256 46.2339 546.167 51.3868 547.24 63.0883H537.686C536.612 57.0765 532.211 53.8559 524.911 53.8559C518.04 53.8559 513.424 57.0765 513.424 61.6927C513.424 66.0942 517.181 68.0265 521.583 68.8853L532.747 71.0324C540.477 72.5353 548.206 76.7221 548.206 86.3839C548.206 96.4751 539.189 103.131 526.306 103.131Z" fill="#0988F0"/>
<path d="M323.884 101.735V26.5883H349.863C371.334 26.5883 385.075 42.4765 385.075 64.1618C385.075 85.9545 371.334 101.735 349.863 101.735H323.884ZM333.546 93.6839H349.327C365.107 93.6839 374.769 81.8751 374.769 64.1618C374.769 46.3412 365.107 34.7471 349.327 34.7471H333.546V93.6839ZM416.908 103.131C400.483 103.131 390.821 90.8927 390.821 74.6824C390.821 58.5795 400.483 46.2339 416.908 46.2339C433.333 46.2339 442.994 58.5795 442.994 74.6824C442.994 90.8927 433.333 103.131 416.908 103.131ZM400.59 74.5751C400.59 85.203 404.992 95.2942 416.908 95.2942C428.717 95.2942 433.225 85.203 433.225 74.5751C433.225 64.0545 428.717 54.0706 416.908 54.0706C404.992 54.0706 400.59 64.0545 400.59 74.5751ZM474.096 103.131C458.315 103.131 448.116 90.8927 448.116 74.6824C448.116 58.5795 458.315 46.2339 474.203 46.2339C486.656 46.2339 495.674 53.7486 497.391 66.0942H487.837C486.334 58.5795 481.074 54.0706 474.096 54.0706C462.824 54.0706 457.886 63.8398 457.886 74.5751C457.886 85.4177 462.824 95.2942 474.096 95.2942C481.181 95.2942 485.905 91.6442 487.837 84.5589H497.284C495.244 95.6162 486.978 103.131 474.096 103.131ZM526.306 103.131C512.136 103.131 503.333 96.3677 502.367 84.7736H512.028C513.317 91.9662 518.147 95.5089 526.521 95.5089C533.821 95.5089 538.437 92.1809 538.437 86.9206C538.437 82.9486 535.431 80.1574 529.849 79.0839L519.328 77.0442C511.492 75.5412 503.977 71.8912 503.977 61.9074C503.977 52.9971 512.35 46.2339 525.018 46.2339C537.256 46.2339 546.167 51.3868 547.24 63.0883H537.686C536.612 57.0765 532.211 53.8559 524.911 53.8559C518.04 53.8559 513.424 57.0765 513.424 61.6927C513.424 66.0942 517.181 68.0265 521.583 68.8853L532.747 71.0324C540.477 72.5353 548.206 76.7221 548.206 86.3839C548.206 96.4751 539.189 103.131 526.306 103.131Z" fill="#0988F0"/>
<path d="M139.885 101.696V28.0463H173.028C187.126 28.0463 197.332 36.9895 197.332 51.509C197.332 65.818 187.126 74.8664 173.028 74.8664H152.616V101.696H139.885ZM152.616 64.3451H170.818C179.13 64.3451 184.18 59.2948 184.18 51.509C184.18 43.5128 179.13 38.5677 170.818 38.5677H152.616V64.3451Z" fill="white"/>
<path d="M216.604 103.064C206.187 103.064 199.454 96.9613 199.454 87.7025C199.454 75.2873 210.185 72.3413 219.129 70.8683L229.334 69.3953C233.227 68.764 234.174 66.765 234.174 64.3451C234.174 60.0313 231.228 56.5592 224.705 56.5592C218.392 56.5592 214.289 59.5052 213.552 65.292H201.348C202.821 53.508 212.185 47.3004 224.81 47.3004C239.119 47.3004 246.274 54.1393 246.274 66.9754V89.7016C246.274 91.1745 247.326 92.1215 248.799 92.1215H251.64V101.696H243.854C238.488 101.696 235.121 99.0656 235.121 94.9622V93.8049C230.492 100.539 223.548 103.064 216.604 103.064ZM211.869 86.4399C211.869 91.1745 215.341 93.8049 220.602 93.8049C229.019 93.8049 234.174 86.8608 234.174 78.128V75.2873C232.596 76.129 231.123 76.4446 229.334 76.8655L221.443 78.2333C214.815 79.3906 211.869 81.9157 211.869 86.4399Z" fill="white"/>
<path d="M255.045 119.161V109.797H264.935C267.986 109.797 269.565 109.166 270.722 106.325L272.826 100.644L251.152 48.6682H263.988L278.613 85.8086L291.975 48.6682H304.706L281.138 110.218C278.192 117.899 273.458 119.161 267.25 119.161H255.045Z" fill="white"/>
<path d="M88.1836 56.2363L98.7726 45.7266C74.8398 21.973 45.1022 21.973 21.1694 45.7266L31.7584 56.2363C49.9601 38.1708 69.9942 38.1708 88.1959 56.2363H88.1836Z" fill="white"/>
<path d="M84.6625 80.7233L59.9672 56.2129L35.2719 80.7233L10.5767 56.2129L0 66.7104L35.2719 101.73L59.9672 77.22L84.6625 101.73L119.934 66.7104L109.358 56.2129L84.6625 80.7233Z" fill="white"/>
</svg>
