<svg width="280" height="146" viewBox="0 0 280 146" fill="none" xmlns="http://www.w3.org/2000/svg">
<g clip-path="url(#clip0_2344_2682)">
<mask id="mask0_2344_2682" style="mask-type:luminance" maskUnits="userSpaceOnUse" x="0" y="0" width="280" height="146">
<path d="M0 16C0 7.16344 7.16344 0 16 0H264C272.837 0 280 7.16344 280 16V130C280 138.837 272.837 146 264 146H16C7.16344 146 0 138.837 0 130V16Z" fill="white"/>
</mask>
<g mask="url(#mask0_2344_2682)">
<path d="M0 16C0 7.16344 7.16344 0 16 0H264C272.837 0 280 7.16344 280 16V130C280 138.837 272.837 146 264 146H16C7.16344 146 0 138.837 0 130V16Z" fill="#181817"/>
<path d="M-26.354 18.5H306.354" stroke="#1F2228" stroke-dasharray="5 5"/>
<path d="M-26.354 45.5H306.354" stroke="#1F2228" stroke-dasharray="5 5"/>
<path d="M-26.354 72.5H306.354" stroke="#1F2228" stroke-dasharray="5 5"/>
<path d="M-26.354 99.5H306.354" stroke="#1F2228" stroke-dasharray="5 5"/>
<path d="M-26.354 126.5H306.354" stroke="#1F2228" stroke-dasharray="5 5"/>
<path d="M26.5 239V-93" stroke="#1F2228" stroke-dasharray="5 5"/>
<path d="M83 239V-93" stroke="#1F2228" stroke-dasharray="5 5"/>
<path d="M139.5 239V-93" stroke="#1F2228" stroke-dasharray="5 5"/>
<path d="M196 239V-93" stroke="#1F2228" stroke-dasharray="5 5"/>
<path d="M252.5 239V-93" stroke="#1F2228" stroke-dasharray="5 5"/>
</g>
<path d="M123.634 67.8656L139.324 56.9938C140.032 56.5039 140.968 56.5039 141.676 56.9938L157.366 67.8656L157.366 79.1344L140.5 85.1574L123.634 79.1344L123.634 67.8656Z" fill="white"/>
<path d="M123.646 79.1299L138.796 67.0438C139.8 66.2428 141.224 66.2428 142.228 67.0438L157.378 79.1299L141.688 90.0017C140.98 90.4916 140.044 90.4916 139.337 90.0017L123.646 79.1299Z" fill="white"/>
<path d="M123.646 67.8652L140.512 79.1253L157.378 67.8652" stroke="#202020" stroke-width="0.687982"/>
<path d="M122.813 73.0151L140.497 84.9276L158.18 73.0151" stroke="#202020" stroke-width="0.687982"/>
</g>
<defs>
<clipPath id="clip0_2344_2682">
<rect width="280" height="146" fill="white"/>
</clipPath>
</defs>
</svg>
