<svg width="280" height="146" viewBox="0 0 280 146" fill="none" xmlns="http://www.w3.org/2000/svg">
<g clip-path="url(#clip0_2364_2624)">
<mask id="mask0_2364_2624" style="mask-type:luminance" maskUnits="userSpaceOnUse" x="0" y="0" width="280" height="146">
<path d="M0 16C0 7.16344 7.16344 0 16 0H264C272.837 0 280 7.16344 280 16V130C280 138.837 272.837 146 264 146H16C7.16344 146 0 138.837 0 130V16Z" fill="white"/>
</mask>
<g mask="url(#mask0_2364_2624)">
<path d="M0 16C0 7.16344 7.16344 0 16 0H264C272.837 0 280 7.16344 280 16V130C280 138.837 272.837 146 264 146H16C7.16344 146 0 138.837 0 130V16Z" fill="#181817"/>
<path d="M-26.354 18.5H306.354" stroke="#1F2228" stroke-dasharray="5 5"/>
<path d="M-26.354 45.5H306.354" stroke="#1F2228" stroke-dasharray="5 5"/>
<path d="M-26.354 72.5H306.354" stroke="#1F2228" stroke-dasharray="5 5"/>
<path d="M-26.354 99.5H306.354" stroke="#1F2228" stroke-dasharray="5 5"/>
<path d="M-26.354 126.5H306.354" stroke="#1F2228" stroke-dasharray="5 5"/>
<path d="M26.5 239V-93" stroke="#1F2228" stroke-dasharray="5 5"/>
<path d="M83 239V-93" stroke="#1F2228" stroke-dasharray="5 5"/>
<path d="M139.5 239V-93" stroke="#1F2228" stroke-dasharray="5 5"/>
<path d="M196 239V-93" stroke="#1F2228" stroke-dasharray="5 5"/>
<path d="M252.5 239V-93" stroke="#1F2228" stroke-dasharray="5 5"/>
<mask id="mask1_2364_2624" style="mask-type:luminance" maskUnits="userSpaceOnUse" x="124" y="57" width="32" height="32">
<path d="M156 57H124V89H156V57Z" fill="white"/>
</mask>
<g mask="url(#mask1_2364_2624)">
<path d="M151 65H131C130.735 65 130.48 64.8946 130.293 64.7071C130.105 64.5196 130 64.2652 130 64C130 63.7348 130.105 63.4804 130.293 63.2929C130.48 63.1054 130.735 63 131 63H148C148.265 63 148.52 62.8946 148.707 62.7071C148.895 62.5196 149 62.2652 149 62C149 61.7348 148.895 61.4804 148.707 61.2929C148.52 61.1054 148.265 61 148 61H131C130.204 61 129.441 61.3161 128.879 61.8787C128.316 62.4413 128 63.2044 128 64V80C128 80.7956 128.316 81.5587 128.879 82.1213C129.441 82.6839 130.204 83 131 83H151C151.53 83 152.039 82.7893 152.414 82.4142C152.789 82.0391 153 81.5304 153 81V67C153 66.4696 152.789 65.9609 152.414 65.5858C152.039 65.2107 151.53 65 151 65ZM151 81H131C130.735 81 130.48 80.8946 130.293 80.7071C130.105 80.5196 130 80.2652 130 80V66.8287C130.321 66.9426 130.659 67.0005 131 67H151V81ZM145 73.5C145 73.2033 145.088 72.9133 145.253 72.6666C145.418 72.42 145.652 72.2277 145.926 72.1142C146.2 72.0006 146.502 71.9709 146.793 72.0288C147.084 72.0867 147.351 72.2296 147.561 72.4393C147.77 72.6491 147.913 72.9164 147.971 73.2074C148.029 73.4983 147.999 73.7999 147.886 74.074C147.772 74.3481 147.58 74.5824 147.333 74.7472C147.087 74.912 146.797 75 146.5 75C146.102 75 145.721 74.842 145.439 74.5607C145.158 74.2794 145 73.8978 145 73.5Z" fill="#202020"/>
</g>
</g>
<path d="M157.375 59.4375H123.625C122.879 59.4375 122.164 59.7338 121.636 60.2613C121.109 60.7887 120.812 61.5041 120.812 62.25V84.75C120.812 85.4959 121.109 86.2113 121.636 86.7387C122.164 87.2662 122.879 87.5625 123.625 87.5625H157.375C158.121 87.5625 158.836 87.2662 159.364 86.7387C159.891 86.2113 160.188 85.4959 160.188 84.75V62.25C160.188 61.5041 159.891 60.7887 159.364 60.2613C158.836 59.7338 158.121 59.4375 157.375 59.4375ZM141.906 81.9375H139.094C138.721 81.9375 138.363 81.7893 138.099 81.5256C137.836 81.2619 137.688 80.9042 137.688 80.5312C137.688 80.1583 137.836 79.8006 138.099 79.5369C138.363 79.2732 138.721 79.125 139.094 79.125H141.906C142.279 79.125 142.637 79.2732 142.901 79.5369C143.164 79.8006 143.312 80.1583 143.312 80.5312C143.312 80.9042 143.164 81.2619 142.901 81.5256C142.637 81.7893 142.279 81.9375 141.906 81.9375ZM153.156 81.9375H147.531C147.158 81.9375 146.801 81.7893 146.537 81.5256C146.273 81.2619 146.125 80.9042 146.125 80.5312C146.125 80.1583 146.273 79.8006 146.537 79.5369C146.801 79.2732 147.158 79.125 147.531 79.125H153.156C153.529 79.125 153.887 79.2732 154.151 79.5369C154.414 79.8006 154.562 80.1583 154.562 80.5312C154.562 80.9042 154.414 81.2619 154.151 81.5256C153.887 81.7893 153.529 81.9375 153.156 81.9375ZM123.625 66.4688V62.25H157.375V66.4688H123.625Z" fill="white"/>
</g>
<defs>
<clipPath id="clip0_2364_2624">
<rect width="280" height="146" fill="white"/>
</clipPath>
</defs>
</svg>
