<svg width="32" height="32" viewBox="0 0 32 32" fill="none" xmlns="http://www.w3.org/2000/svg">
<path d="M24.4751 7.52508C23.8206 6.87056 22.9336 6.50192 22.008 6.49981C21.0825 6.4977 20.1937 6.8623 19.5363 7.51383L18.0851 9.03508C17.9507 9.18359 17.7879 9.30368 17.6063 9.38826C17.4248 9.47284 17.2281 9.52021 17.0279 9.52756C16.8278 9.53491 16.6282 9.5021 16.4409 9.43106C16.2536 9.36002 16.0825 9.25219 15.9375 9.11394C15.7926 8.97569 15.6768 8.80981 15.5971 8.62609C15.5173 8.44237 15.4751 8.24453 15.473 8.04425C15.4709 7.84396 15.5089 7.64529 15.5849 7.45994C15.6608 7.27459 15.7731 7.10633 15.9151 6.96508L17.3751 5.42883L17.4001 5.40383C18.6191 4.18483 20.2724 3.5 21.9963 3.5C23.7203 3.5 25.3736 4.18483 26.5926 5.40383C27.8116 6.62283 28.4964 8.27615 28.4964 10.0001C28.4964 11.724 27.8116 13.3773 26.5926 14.5963L26.5676 14.6213L25.0313 16.0851C24.7414 16.3474 24.3605 16.4862 23.9698 16.4719C23.579 16.4575 23.2093 16.2912 22.9394 16.0083C22.6696 15.7253 22.5208 15.3482 22.5249 14.9572C22.529 14.5662 22.6856 14.1923 22.9613 13.9151L24.4826 12.4638C25.1346 11.8069 25.4999 10.9185 25.4985 9.99291C25.4971 9.06734 25.1291 8.18001 24.4751 7.52508ZM13.9151 22.9651L12.4638 24.4863C11.8074 25.1427 10.9171 25.5115 9.98883 25.5115C9.06052 25.5115 8.17024 25.1427 7.51383 24.4863C6.85742 23.8299 6.48865 22.9396 6.48865 22.0113C6.48865 21.083 6.85742 20.1927 7.51383 19.5363L9.03508 18.0851C9.31082 17.8079 9.46742 17.4339 9.47151 17.0429C9.4756 16.652 9.32685 16.2748 9.05697 15.9919C8.78708 15.709 8.41738 15.5426 8.02664 15.5283C7.63589 15.5139 7.25499 15.6527 6.96508 15.9151L5.42883 17.3751L5.40383 17.4001C4.18483 18.6191 3.5 20.2724 3.5 21.9963C3.5 23.7203 4.18483 25.3736 5.40383 26.5926C6.62283 27.8116 8.27615 28.4964 10.0001 28.4964C11.724 28.4964 13.3773 27.8116 14.5963 26.5926L14.6213 26.5676L16.0851 25.0313C16.2271 24.8901 16.3394 24.7218 16.4153 24.5365C16.4912 24.3511 16.5293 24.1524 16.5272 23.9522C16.5251 23.7519 16.4829 23.554 16.4031 23.3703C16.3233 23.1866 16.2075 23.0207 16.0626 22.8825C15.9177 22.7442 15.7465 22.6364 15.5593 22.5654C15.372 22.4943 15.1724 22.4615 14.9722 22.4689C14.772 22.4762 14.5754 22.5236 14.3938 22.6081C14.2123 22.6927 14.0495 22.8128 13.9151 22.9613V22.9651ZM27.0001 18.5001H24.0001C23.6023 18.5001 23.2207 18.6581 22.9394 18.9394C22.6581 19.2207 22.5001 19.6023 22.5001 20.0001C22.5001 20.3979 22.6581 20.7794 22.9394 21.0607C23.2207 21.342 23.6023 21.5001 24.0001 21.5001H27.0001C27.3979 21.5001 27.7794 21.342 28.0607 21.0607C28.342 20.7794 28.5001 20.3979 28.5001 20.0001C28.5001 19.6023 28.342 19.2207 28.0607 18.9394C27.7794 18.6581 27.3979 18.5001 27.0001 18.5001ZM5.00008 13.5001H8.00008C8.3979 13.5001 8.77944 13.342 9.06074 13.0607C9.34204 12.7794 9.50008 12.3979 9.50008 12.0001C9.50008 11.6023 9.34204 11.2207 9.06074 10.9394C8.77944 10.6581 8.3979 10.5001 8.00008 10.5001H5.00008C4.60225 10.5001 4.22072 10.6581 3.93942 10.9394C3.65811 11.2207 3.50008 11.6023 3.50008 12.0001C3.50008 12.3979 3.65811 12.7794 3.93942 13.0607C4.22072 13.342 4.60225 13.5001 5.00008 13.5001ZM20.0001 22.5001C19.6023 22.5001 19.2207 22.6581 18.9394 22.9394C18.6581 23.2207 18.5001 23.6023 18.5001 24.0001V27.0001C18.5001 27.3979 18.6581 27.7794 18.9394 28.0607C19.2207 28.342 19.6023 28.5001 20.0001 28.5001C20.3979 28.5001 20.7794 28.342 21.0607 28.0607C21.342 27.7794 21.5001 27.3979 21.5001 27.0001V24.0001C21.5001 23.6023 21.342 23.2207 21.0607 22.9394C20.7794 22.6581 20.3979 22.5001 20.0001 22.5001ZM12.0001 9.50008C12.3979 9.50008 12.7794 9.34204 13.0607 9.06074C13.342 8.77944 13.5001 8.3979 13.5001 8.00008V5.00008C13.5001 4.60225 13.342 4.22072 13.0607 3.93942C12.7794 3.65811 12.3979 3.50008 12.0001 3.50008C11.6023 3.50008 11.2207 3.65811 10.9394 3.93942C10.6581 4.22072 10.5001 4.60225 10.5001 5.00008V8.00008C10.5001 8.3979 10.6581 8.77944 10.9394 9.06074C11.2207 9.34204 11.6023 9.50008 12.0001 9.50008Z" fill="#717684"/>
</svg>
