<svg width="280" height="146" viewBox="0 0 280 146" fill="none" xmlns="http://www.w3.org/2000/svg">
<g clip-path="url(#clip0_2374_681)">
<mask id="mask0_2374_681" style="mask-type:luminance" maskUnits="userSpaceOnUse" x="0" y="0" width="280" height="146">
<path d="M0 16C0 7.16344 7.16344 0 16 0H264C272.837 0 280 7.16344 280 16V130C280 138.837 272.837 146 264 146H16C7.16344 146 0 138.837 0 130V16Z" fill="white"/>
</mask>
<g mask="url(#mask0_2374_681)">
<path d="M0 16C0 7.16344 7.16344 0 16 0H264C272.837 0 280 7.16344 280 16V130C280 138.837 272.837 146 264 146H16C7.16344 146 0 138.837 0 130V16Z" fill="#F7F7F8"/>
<path d="M-26.354 18.5H306.354" stroke="#E9EAEC" stroke-dasharray="5 5"/>
<path d="M-26.354 45.5H306.354" stroke="#E9EAEC" stroke-dasharray="5 5"/>
<path d="M-26.354 72.5H140H306.354" stroke="#E9EAEC" stroke-dasharray="5 5"/>
<path d="M-26.354 99.5H306.354" stroke="#E9EAEC" stroke-dasharray="5 5"/>
<path d="M-26.354 126.5H306.354" stroke="#E9EAEC" stroke-dasharray="5 5"/>
<path d="M26.5 239V-93" stroke="#E9EAEC" stroke-dasharray="5 5"/>
<path d="M83 239V-93" stroke="#E9EAEC" stroke-dasharray="5 5"/>
<path d="M139.5 239V-93" stroke="#E9EAEC" stroke-dasharray="5 5"/>
<path d="M196 239V-93" stroke="#E9EAEC" stroke-dasharray="5 5"/>
<path d="M252.5 239V-93" stroke="#E9EAEC" stroke-dasharray="5 5"/>
</g>
<path d="M158.488 75.7957C157.964 75.3931 157.355 75.1166 156.708 74.9876C156.06 74.8586 155.392 74.8807 154.754 75.0522L147.399 76.7432C147.571 76.0203 147.576 75.2682 147.415 74.543C147.254 73.8178 146.931 73.1385 146.47 72.5559C146.009 71.9734 145.423 71.5026 144.754 71.1791C144.085 70.8555 143.352 70.6874 142.609 70.6875H133.81C133.071 70.6857 132.339 70.8303 131.656 71.113C130.973 71.3957 130.353 71.8109 129.832 72.3346L125.856 76.3125H120.812C120.067 76.3125 119.351 76.6088 118.824 77.1363C118.296 77.6637 118 78.3791 118 79.125V86.1563C118 86.9022 118.296 87.6175 118.824 88.145C119.351 88.6724 120.067 88.9688 120.812 88.9688H139.094C139.209 88.9688 139.323 88.9546 139.435 88.9266L150.685 86.1141C150.756 86.097 150.826 86.0735 150.894 86.0438L157.727 83.1363L157.804 83.1012C158.461 82.773 159.023 82.2831 159.438 81.6776C159.853 81.0721 160.107 80.3709 160.176 79.6401C160.245 78.9093 160.127 78.1729 159.833 77.5003C159.539 76.8277 159.078 76.2411 158.495 75.7957H158.488ZM120.812 79.125H125.031V86.1563H120.812V79.125ZM156.572 80.5682L149.892 83.4123L138.918 86.1563H127.844V78.3006L131.822 74.3244C132.082 74.0621 132.392 73.8542 132.733 73.7126C133.074 73.5711 133.44 73.4988 133.81 73.5H142.609C143.169 73.5 143.705 73.7222 144.101 74.1178C144.497 74.5134 144.719 75.0499 144.719 75.6094C144.719 76.1688 144.497 76.7053 144.101 77.1009C143.705 77.4965 143.169 77.7188 142.609 77.7188H137.688C137.315 77.7188 136.957 77.8669 136.693 78.1306C136.429 78.3944 136.281 78.752 136.281 79.125C136.281 79.498 136.429 79.8556 136.693 80.1194C136.957 80.3831 137.315 80.5313 137.688 80.5313H143.312C143.418 80.531 143.524 80.5192 143.627 80.4961L155.404 77.7873L155.459 77.7732C155.819 77.6734 156.202 77.7101 156.536 77.8762C156.87 78.0423 157.131 78.3261 157.269 78.673C157.406 79.0199 157.411 79.4054 157.281 79.7552C157.151 80.1051 156.897 80.3946 156.566 80.5682H156.572ZM146.828 67.875C147.176 67.8754 147.522 67.8472 147.865 67.7906C148.251 68.9359 148.956 69.9469 149.898 70.7039C150.84 71.461 151.979 71.9325 153.181 72.0628C154.382 72.193 155.596 71.9766 156.678 71.4389C157.76 70.9013 158.666 70.0651 159.288 69.029C159.91 67.993 160.222 66.8005 160.188 65.5925C160.154 64.3845 159.775 63.2116 159.095 62.2124C158.415 61.2132 157.464 60.4295 156.353 59.9539C155.242 59.4784 154.018 59.3309 152.826 59.5289C152.455 58.4254 151.786 57.4458 150.894 56.6977C150.002 55.9497 148.92 55.4623 147.769 55.2891C146.618 55.116 145.441 55.2638 144.368 55.7163C143.296 56.1689 142.369 56.9085 141.689 57.854C141.01 58.7995 140.604 59.914 140.518 61.075C140.431 62.2361 140.666 63.3985 141.197 64.4345C141.728 65.4705 142.535 66.3398 143.529 66.9468C144.522 67.5538 145.664 67.875 146.828 67.875ZM157.375 65.7656C157.375 66.461 157.169 67.1407 156.783 67.7188C156.396 68.2969 155.847 68.7476 155.205 69.0136C154.562 69.2797 153.855 69.3494 153.174 69.2137C152.492 69.0781 151.865 68.7432 151.373 68.2515C150.882 67.7599 150.547 67.1335 150.411 66.4515C150.276 65.7695 150.345 65.0627 150.611 64.4203C150.877 63.7779 151.328 63.2288 151.906 62.8425C152.484 62.4562 153.164 62.25 153.859 62.25C154.792 62.25 155.686 62.6204 156.345 63.2797C157.005 63.939 157.375 64.8332 157.375 65.7656ZM146.828 58.0313C147.595 58.0316 148.341 58.2828 148.952 58.7465C149.563 59.2101 150.005 59.8608 150.212 60.5994C149.492 61.1062 148.885 61.7577 148.431 62.5123C147.977 63.2669 147.686 64.1079 147.575 64.9816C147.33 65.0347 147.079 65.0618 146.828 65.0625C145.896 65.0625 145.002 64.6921 144.342 64.0328C143.683 63.3735 143.312 62.4793 143.312 61.5469C143.312 60.6145 143.683 59.7203 144.342 59.061C145.002 58.4016 145.896 58.0313 146.828 58.0313Z" fill="#202020"/>
</g>
<defs>
<clipPath id="clip0_2374_681">
<rect width="280" height="146" fill="white"/>
</clipPath>
</defs>
</svg>
