<svg width="32" height="32" viewBox="0 0 32 32" fill="none" xmlns="http://www.w3.org/2000/svg">
<path d="M1.34865 0C0.601271 0 0 0.648485 0 1.45455C0 2.26061 0.601271 2.90909 1.34865 2.90909H3.89422C4.11337 2.90909 4.29881 3.07879 4.33814 3.30909L7.26583 20.6606C7.61423 22.7333 9.2888 24.2424 11.2443 24.2424H25.6243C26.3716 24.2424 26.9729 23.5939 26.9729 22.7879C26.9729 21.9818 26.3716 21.3333 25.6243 21.3333H11.2443C10.5925 21.3333 10.0362 20.8303 9.91817 20.1394L9.63158 18.4242H26.692C28.4227 18.4242 29.9062 17.097 30.2265 15.2606L31.9685 5.20606C32.1764 4.01212 31.3279 2.90909 30.1984 2.90909H7.00734L6.98486 2.78788C6.71513 1.17576 5.41144 0 3.8886 0H1.34865ZM11.6883 32C13.1774 32 14.3856 30.697 14.3856 29.0909C14.3856 27.4848 13.1774 26.1818 11.6883 26.1818C10.1991 26.1818 8.99097 27.4848 8.99097 29.0909C8.99097 30.697 10.1991 32 11.6883 32ZM24.2756 32C25.7648 32 26.9729 30.697 26.9729 29.0909C26.9729 27.4848 25.7648 26.1818 24.2756 26.1818C22.7865 26.1818 21.5783 27.4848 21.5783 29.0909C21.5783 30.697 22.7865 32 24.2756 32Z" fill="#717684"/>
</svg>
