<svg width="280" height="146" viewBox="0 0 280 146" fill="none" xmlns="http://www.w3.org/2000/svg">
<g clip-path="url(#clip0_2344_2682)">
<mask id="mask0_2344_2682" style="mask-type:luminance" maskUnits="userSpaceOnUse" x="0" y="0" width="280" height="146">
<path d="M0 16C0 7.16344 7.16344 0 16 0H264C272.837 0 280 7.16344 280 16V130C280 138.837 272.837 146 264 146H16C7.16344 146 0 138.837 0 130V16Z" fill="white"/>
</mask>
<g mask="url(#mask0_2344_2682)">
<path d="M0 16C0 7.16344 7.16344 0 16 0H264C272.837 0 280 7.16344 280 16V130C280 138.837 272.837 146 264 146H16C7.16344 146 0 138.837 0 130V16Z" fill="#181817"/>
<path d="M-26.354 18.5H306.354" stroke="#1F2228" stroke-dasharray="5 5"/>
<path d="M-26.354 45.5H306.354" stroke="#1F2228" stroke-dasharray="5 5"/>
<path d="M-26.354 72.5H306.354" stroke="#1F2228" stroke-dasharray="5 5"/>
<path d="M-26.354 99.5H306.354" stroke="#1F2228" stroke-dasharray="5 5"/>
<path d="M-26.354 126.5H306.354" stroke="#1F2228" stroke-dasharray="5 5"/>
<path d="M26.5 239V-93" stroke="#1F2228" stroke-dasharray="5 5"/>
<path d="M83 239V-93" stroke="#1F2228" stroke-dasharray="5 5"/>
<path d="M139.5 239V-93" stroke="#1F2228" stroke-dasharray="5 5"/>
<path d="M196 239V-93" stroke="#1F2228" stroke-dasharray="5 5"/>
<path d="M252.5 239V-93" stroke="#1F2228" stroke-dasharray="5 5"/>
</g>
<path d="M155.969 62.25H127.844C127.471 62.25 127.113 62.1018 126.849 61.8381C126.586 61.5744 126.438 61.2167 126.438 60.8438C126.438 60.4708 126.586 60.1131 126.849 59.8494C127.113 59.5857 127.471 59.4375 127.844 59.4375H151.75C152.123 59.4375 152.481 59.2893 152.744 59.0256C153.008 58.7619 153.156 58.4042 153.156 58.0312C153.156 57.6583 153.008 57.3006 152.744 57.0369C152.481 56.7732 152.123 56.625 151.75 56.625H127.844C126.725 56.625 125.652 57.0695 124.861 57.8606C124.069 58.6518 123.625 59.7249 123.625 60.8438V83.3438C123.625 84.4626 124.069 85.5357 124.861 86.3269C125.652 87.118 126.725 87.5625 127.844 87.5625H155.969C156.715 87.5625 157.43 87.2662 157.957 86.7387C158.485 86.2113 158.781 85.4959 158.781 84.75V65.0625C158.781 64.3166 158.485 63.6012 157.957 63.0738C157.43 62.5463 156.715 62.25 155.969 62.25ZM149.641 76.3125C149.223 76.3125 148.816 76.1888 148.469 75.957C148.122 75.7252 147.851 75.3958 147.692 75.0103C147.532 74.6249 147.49 74.2008 147.572 73.7916C147.653 73.3824 147.854 73.0066 148.149 72.7116C148.444 72.4166 148.82 72.2157 149.229 72.1343C149.638 72.0529 150.062 72.0947 150.448 72.2543C150.833 72.414 151.163 72.6843 151.395 73.0312C151.626 73.3781 151.75 73.7859 151.75 74.2031C151.75 74.7626 151.528 75.2991 151.132 75.6947C150.737 76.0903 150.2 76.3125 149.641 76.3125Z" fill="#F3F3F3"/>
</g>
<defs>
<clipPath id="clip0_2344_2682">
<rect width="280" height="146" fill="white"/>
</clipPath>
</defs>
</svg>
