<svg width="32" height="32" viewBox="0 0 32 32" fill="none" xmlns="http://www.w3.org/2000/svg">
<path d="M30.0327 23.2624L19.1014 4.27864C18.7848 3.73716 18.3319 3.28801 17.7878 2.97588C17.2438 2.66375 16.6274 2.49951 16.0002 2.49951C15.3729 2.49951 14.7566 2.66375 14.2125 2.97588C13.6684 3.28801 13.2155 3.73716 12.8989 4.27864L1.96768 23.2624C1.66045 23.7879 1.49854 24.3856 1.49854 24.9943C1.49854 25.603 1.66045 26.2007 1.96768 26.7261C2.28079 27.2703 2.73304 27.7214 3.27803 28.0331C3.82302 28.3448 4.44112 28.5059 5.06893 28.4999H26.9314C27.5588 28.5055 28.1764 28.3442 28.7209 28.0325C29.2654 27.7208 29.7173 27.27 30.0302 26.7261C30.3378 26.2009 30.5001 25.6033 30.5006 24.9946C30.501 24.3859 30.3395 23.7881 30.0327 23.2624ZM27.4327 25.2249C27.3818 25.3115 27.3085 25.3828 27.2205 25.4312C27.1325 25.4796 27.0331 25.5033 26.9327 25.4999H5.06893C4.96854 25.5033 4.86909 25.4796 4.78108 25.4312C4.69306 25.3828 4.61977 25.3115 4.56893 25.2249C4.52581 25.1548 4.50298 25.0741 4.50298 24.9918C4.50298 24.9095 4.52581 24.8288 4.56893 24.7586L15.5002 5.77489C15.5543 5.69158 15.6284 5.6231 15.7157 5.5757C15.803 5.5283 15.9008 5.50347 16.0002 5.50347C16.0995 5.50347 16.1973 5.5283 16.2846 5.5757C16.372 5.6231 16.446 5.69158 16.5002 5.77489L27.4302 24.7586C27.4737 24.8285 27.4969 24.9091 27.4974 24.9914C27.4978 25.0737 27.4754 25.1545 27.4327 25.2249ZM14.5002 16.9999V12.9999C14.5002 12.6021 14.6582 12.2205 14.9395 11.9392C15.2208 11.6579 15.6024 11.4999 16.0002 11.4999C16.398 11.4999 16.7795 11.6579 17.0608 11.9392C17.3421 12.2205 17.5002 12.6021 17.5002 12.9999V16.9999C17.5002 17.3977 17.3421 17.7792 17.0608 18.0606C16.7795 18.3419 16.398 18.4999 16.0002 18.4999C15.6024 18.4999 15.2208 18.3419 14.9395 18.0606C14.6582 17.7792 14.5002 17.3977 14.5002 16.9999ZM18.0002 21.9999C18.0002 22.3955 17.8829 22.7821 17.6631 23.111C17.4434 23.4399 17.131 23.6963 16.7655 23.8477C16.4001 23.999 15.998 24.0386 15.61 23.9615C15.222 23.8843 14.8657 23.6938 14.586 23.4141C14.3063 23.1344 14.1158 22.778 14.0386 22.3901C13.9614 22.0021 14.001 21.6 14.1524 21.2345C14.3038 20.8691 14.5601 20.5567 14.889 20.337C15.2179 20.1172 15.6046 19.9999 16.0002 19.9999C16.5306 19.9999 17.0393 20.2106 17.4144 20.5857C17.7895 20.9608 18.0002 21.4695 18.0002 21.9999Z" fill="#717684"/>
</svg>
